<mxfile host="www.draw.io" modified="2019-12-05T19:13:59.448Z" agent="Mozilla/5.0 (Macintosh; Intel Mac OS X 10_15_1) AppleWebKit/605.1.15 (KHTML, like Gecko) Version/13.0.3 Safari/605.1.15" etag="Ex-HxcJ0ZZt19_5zH1gA" version="12.3.7" type="github" pages="4">
  <diagram id="FCZbGOCqkZsa6hq24Ujw" name="Page-1">
    <mxGraphModel dx="2052" dy="1188" grid="1" gridSize="10" guides="1" tooltips="1" connect="1" arrows="1" fold="1" page="1" pageScale="1" pageWidth="827" pageHeight="1169" math="0" shadow="0">
      <root>
        <mxCell id="0"/>
        <mxCell id="1" parent="0"/>
        <mxCell id="JA3ov6Vz1wmZvSU3Bt8C-1" value="Start" style="ellipse;whiteSpace=wrap;html=1;" parent="1" vertex="1">
          <mxGeometry x="250" y="50" width="110" height="40" as="geometry"/>
        </mxCell>
        <mxCell id="JA3ov6Vz1wmZvSU3Bt8C-2" value="" style="endArrow=classic;html=1;" parent="1" edge="1">
          <mxGeometry width="50" height="50" relative="1" as="geometry">
            <mxPoint x="305" y="90" as="sourcePoint"/>
            <mxPoint x="304.5" y="130" as="targetPoint"/>
          </mxGeometry>
        </mxCell>
        <mxCell id="JA3ov6Vz1wmZvSU3Bt8C-9" style="edgeStyle=orthogonalEdgeStyle;rounded=0;orthogonalLoop=1;jettySize=auto;html=1;entryX=0.5;entryY=0;entryDx=0;entryDy=0;" parent="1" source="JA3ov6Vz1wmZvSU3Bt8C-3" target="JA3ov6Vz1wmZvSU3Bt8C-5" edge="1">
          <mxGeometry relative="1" as="geometry"/>
        </mxCell>
        <mxCell id="JA3ov6Vz1wmZvSU3Bt8C-3" value="n,resistanse,&lt;br&gt;current,ch&lt;br&gt;&lt;br&gt;" style="shape=parallelogram;perimeter=parallelogramPerimeter;whiteSpace=wrap;html=1;" parent="1" vertex="1">
          <mxGeometry x="245" y="130" width="125" height="40" as="geometry"/>
        </mxCell>
        <mxCell id="JA3ov6Vz1wmZvSU3Bt8C-11" style="edgeStyle=orthogonalEdgeStyle;rounded=0;orthogonalLoop=1;jettySize=auto;html=1;exitX=1;exitY=0.5;exitDx=0;exitDy=0;entryX=0.5;entryY=0;entryDx=0;entryDy=0;" parent="1" source="JA3ov6Vz1wmZvSU3Bt8C-5" target="JA3ov6Vz1wmZvSU3Bt8C-10" edge="1">
          <mxGeometry relative="1" as="geometry"/>
        </mxCell>
        <mxCell id="auwsxaL8pGVmZaIofMwK-9" style="edgeStyle=orthogonalEdgeStyle;rounded=0;orthogonalLoop=1;jettySize=auto;html=1;exitX=0;exitY=0.5;exitDx=0;exitDy=0;entryX=0.5;entryY=0;entryDx=0;entryDy=0;" edge="1" parent="1" source="JA3ov6Vz1wmZvSU3Bt8C-5" target="JA3ov6Vz1wmZvSU3Bt8C-19">
          <mxGeometry relative="1" as="geometry"/>
        </mxCell>
        <mxCell id="JA3ov6Vz1wmZvSU3Bt8C-5" value="ch == 2" style="rhombus;whiteSpace=wrap;html=1;" parent="1" vertex="1">
          <mxGeometry x="260" y="200" width="95" height="50" as="geometry"/>
        </mxCell>
        <mxCell id="auwsxaL8pGVmZaIofMwK-3" style="edgeStyle=orthogonalEdgeStyle;rounded=0;orthogonalLoop=1;jettySize=auto;html=1;exitX=0.5;exitY=1;exitDx=0;exitDy=0;" edge="1" parent="1" source="JA3ov6Vz1wmZvSU3Bt8C-10" target="izBXapqjGtcnsGhw-jov-1">
          <mxGeometry relative="1" as="geometry"/>
        </mxCell>
        <mxCell id="JA3ov6Vz1wmZvSU3Bt8C-10" value="FileRead(cond,current)&lt;br&gt;Matrix(resistance,cond,n)" style="shape=process;whiteSpace=wrap;html=1;backgroundOutline=1;" parent="1" vertex="1">
          <mxGeometry x="411" y="290" width="169" height="50" as="geometry"/>
        </mxCell>
        <mxCell id="JA3ov6Vz1wmZvSU3Bt8C-21" style="edgeStyle=orthogonalEdgeStyle;rounded=0;orthogonalLoop=1;jettySize=auto;html=1;exitX=0.5;exitY=1;exitDx=0;exitDy=0;entryX=0.5;entryY=0;entryDx=0;entryDy=0;" parent="1" source="JA3ov6Vz1wmZvSU3Bt8C-19" target="JA3ov6Vz1wmZvSU3Bt8C-20" edge="1">
          <mxGeometry relative="1" as="geometry"/>
        </mxCell>
        <mxCell id="JA3ov6Vz1wmZvSU3Bt8C-31" style="edgeStyle=orthogonalEdgeStyle;rounded=0;orthogonalLoop=1;jettySize=auto;html=1;exitX=1;exitY=0.5;exitDx=0;exitDy=0;entryX=1;entryY=0.5;entryDx=0;entryDy=0;" parent="1" source="JA3ov6Vz1wmZvSU3Bt8C-19" target="JA3ov6Vz1wmZvSU3Bt8C-30" edge="1">
          <mxGeometry relative="1" as="geometry"/>
        </mxCell>
        <mxCell id="JA3ov6Vz1wmZvSU3Bt8C-19" value="k=0,1...n" style="shape=hexagon;perimeter=hexagonPerimeter2;whiteSpace=wrap;html=1;" parent="1" vertex="1">
          <mxGeometry x="245" y="500" width="120" height="40" as="geometry"/>
        </mxCell>
        <mxCell id="JA3ov6Vz1wmZvSU3Bt8C-24" style="edgeStyle=orthogonalEdgeStyle;rounded=0;orthogonalLoop=1;jettySize=auto;html=1;exitX=0.5;exitY=1;exitDx=0;exitDy=0;entryX=0.5;entryY=0;entryDx=0;entryDy=0;" parent="1" source="JA3ov6Vz1wmZvSU3Bt8C-20" target="JA3ov6Vz1wmZvSU3Bt8C-22" edge="1">
          <mxGeometry relative="1" as="geometry"/>
        </mxCell>
        <mxCell id="JA3ov6Vz1wmZvSU3Bt8C-20" value="a;&lt;br&gt;r[] = a.Split(&#39; &#39;);" style="rounded=0;whiteSpace=wrap;html=1;" parent="1" vertex="1">
          <mxGeometry x="236" y="570" width="143" height="60" as="geometry"/>
        </mxCell>
        <mxCell id="JA3ov6Vz1wmZvSU3Bt8C-26" style="edgeStyle=orthogonalEdgeStyle;rounded=0;orthogonalLoop=1;jettySize=auto;html=1;exitX=0.5;exitY=1;exitDx=0;exitDy=0;entryX=0.5;entryY=0;entryDx=0;entryDy=0;" parent="1" source="JA3ov6Vz1wmZvSU3Bt8C-22" target="JA3ov6Vz1wmZvSU3Bt8C-25" edge="1">
          <mxGeometry relative="1" as="geometry"/>
        </mxCell>
        <mxCell id="JA3ov6Vz1wmZvSU3Bt8C-29" style="edgeStyle=orthogonalEdgeStyle;rounded=0;orthogonalLoop=1;jettySize=auto;html=1;exitX=0;exitY=0.5;exitDx=0;exitDy=0;entryX=0;entryY=0.5;entryDx=0;entryDy=0;" parent="1" source="JA3ov6Vz1wmZvSU3Bt8C-22" target="JA3ov6Vz1wmZvSU3Bt8C-19" edge="1">
          <mxGeometry relative="1" as="geometry"/>
        </mxCell>
        <mxCell id="JA3ov6Vz1wmZvSU3Bt8C-22" value="j = 0,1...n" style="shape=hexagon;perimeter=hexagonPerimeter2;whiteSpace=wrap;html=1;" parent="1" vertex="1">
          <mxGeometry x="245" y="660" width="120" height="40" as="geometry"/>
        </mxCell>
        <mxCell id="JA3ov6Vz1wmZvSU3Bt8C-28" style="edgeStyle=orthogonalEdgeStyle;rounded=0;orthogonalLoop=1;jettySize=auto;html=1;exitX=1;exitY=0.5;exitDx=0;exitDy=0;entryX=1;entryY=0.5;entryDx=0;entryDy=0;" parent="1" source="JA3ov6Vz1wmZvSU3Bt8C-25" target="JA3ov6Vz1wmZvSU3Bt8C-22" edge="1">
          <mxGeometry relative="1" as="geometry"/>
        </mxCell>
        <mxCell id="JA3ov6Vz1wmZvSU3Bt8C-25" value="cond[k,j] = r[j]" style="rounded=0;whiteSpace=wrap;html=1;" parent="1" vertex="1">
          <mxGeometry x="266" y="730" width="78" height="40" as="geometry"/>
        </mxCell>
        <mxCell id="JA3ov6Vz1wmZvSU3Bt8C-33" style="edgeStyle=orthogonalEdgeStyle;rounded=0;orthogonalLoop=1;jettySize=auto;html=1;exitX=0.5;exitY=1;exitDx=0;exitDy=0;entryX=0.5;entryY=0;entryDx=0;entryDy=0;" parent="1" source="JA3ov6Vz1wmZvSU3Bt8C-30" target="JA3ov6Vz1wmZvSU3Bt8C-32" edge="1">
          <mxGeometry relative="1" as="geometry"/>
        </mxCell>
        <mxCell id="JA3ov6Vz1wmZvSU3Bt8C-30" value="q&lt;br&gt;qq[]= q.Split" style="rounded=0;whiteSpace=wrap;html=1;" parent="1" vertex="1">
          <mxGeometry x="244" y="800" width="120" height="60" as="geometry"/>
        </mxCell>
        <mxCell id="JA3ov6Vz1wmZvSU3Bt8C-37" style="edgeStyle=orthogonalEdgeStyle;rounded=0;orthogonalLoop=1;jettySize=auto;html=1;exitX=0.5;exitY=1;exitDx=0;exitDy=0;entryX=0.5;entryY=0;entryDx=0;entryDy=0;" parent="1" source="JA3ov6Vz1wmZvSU3Bt8C-32" target="JA3ov6Vz1wmZvSU3Bt8C-34" edge="1">
          <mxGeometry relative="1" as="geometry"/>
        </mxCell>
        <mxCell id="JA3ov6Vz1wmZvSU3Bt8C-41" style="edgeStyle=orthogonalEdgeStyle;rounded=0;orthogonalLoop=1;jettySize=auto;html=1;exitX=1;exitY=0.5;exitDx=0;exitDy=0;entryX=1;entryY=0.5;entryDx=0;entryDy=0;" parent="1" source="JA3ov6Vz1wmZvSU3Bt8C-32" target="JA3ov6Vz1wmZvSU3Bt8C-40" edge="1">
          <mxGeometry relative="1" as="geometry"/>
        </mxCell>
        <mxCell id="JA3ov6Vz1wmZvSU3Bt8C-32" value="j=0,1..n" style="shape=hexagon;perimeter=hexagonPerimeter2;whiteSpace=wrap;html=1;" parent="1" vertex="1">
          <mxGeometry x="245" y="880" width="120" height="40" as="geometry"/>
        </mxCell>
        <mxCell id="JA3ov6Vz1wmZvSU3Bt8C-38" style="edgeStyle=orthogonalEdgeStyle;rounded=0;orthogonalLoop=1;jettySize=auto;html=1;exitX=0;exitY=0.5;exitDx=0;exitDy=0;entryX=0;entryY=0.5;entryDx=0;entryDy=0;" parent="1" source="JA3ov6Vz1wmZvSU3Bt8C-34" target="JA3ov6Vz1wmZvSU3Bt8C-32" edge="1">
          <mxGeometry relative="1" as="geometry"/>
        </mxCell>
        <mxCell id="JA3ov6Vz1wmZvSU3Bt8C-34" value="current[j] = qq[j]" style="rounded=0;whiteSpace=wrap;html=1;" parent="1" vertex="1">
          <mxGeometry x="245" y="950" width="120" height="40" as="geometry"/>
        </mxCell>
        <mxCell id="JA3ov6Vz1wmZvSU3Bt8C-40" value="Matrix(resistance,cond,n)" style="shape=process;whiteSpace=wrap;html=1;backgroundOutline=1;" parent="1" vertex="1">
          <mxGeometry x="220" y="1010" width="175" height="60" as="geometry"/>
        </mxCell>
        <mxCell id="izBXapqjGtcnsGhw-jov-6" style="edgeStyle=orthogonalEdgeStyle;rounded=0;orthogonalLoop=1;jettySize=auto;html=1;exitX=0.5;exitY=1;exitDx=0;exitDy=0;entryX=0.5;entryY=0;entryDx=0;entryDy=0;" parent="1" source="izBXapqjGtcnsGhw-jov-2" target="izBXapqjGtcnsGhw-jov-5" edge="1">
          <mxGeometry relative="1" as="geometry"/>
        </mxCell>
        <mxCell id="xFAslDbXmybDTOddt1iY-2" style="edgeStyle=orthogonalEdgeStyle;rounded=0;orthogonalLoop=1;jettySize=auto;html=1;exitX=1;exitY=0.5;exitDx=0;exitDy=0;entryX=0.5;entryY=0;entryDx=0;entryDy=0;" parent="1" source="izBXapqjGtcnsGhw-jov-2" target="xFAslDbXmybDTOddt1iY-1" edge="1">
          <mxGeometry relative="1" as="geometry"/>
        </mxCell>
        <mxCell id="izBXapqjGtcnsGhw-jov-2" value="i = 1, 2...n" style="shape=hexagon;perimeter=hexagonPerimeter2;whiteSpace=wrap;html=1;" parent="1" vertex="1">
          <mxGeometry x="245" y="1190" width="120" height="41" as="geometry"/>
        </mxCell>
        <mxCell id="izBXapqjGtcnsGhw-jov-1" value="rr[,] , cc[] , y=yy=0, g=1" style="shape=parallelogram;perimeter=parallelogramPerimeter;whiteSpace=wrap;html=1;" parent="1" vertex="1">
          <mxGeometry x="379" y="1110" width="160" height="30" as="geometry"/>
        </mxCell>
        <mxCell id="izBXapqjGtcnsGhw-jov-4" style="edgeStyle=orthogonalEdgeStyle;rounded=0;orthogonalLoop=1;jettySize=auto;html=1;exitX=0.5;exitY=1;exitDx=0;exitDy=0;" parent="1" source="JA3ov6Vz1wmZvSU3Bt8C-40" target="izBXapqjGtcnsGhw-jov-1" edge="1">
          <mxGeometry relative="1" as="geometry">
            <mxPoint x="308" y="1130" as="targetPoint"/>
            <mxPoint x="308" y="1070" as="sourcePoint"/>
            <Array as="points"/>
          </mxGeometry>
        </mxCell>
        <mxCell id="izBXapqjGtcnsGhw-jov-8" style="edgeStyle=orthogonalEdgeStyle;rounded=0;orthogonalLoop=1;jettySize=auto;html=1;exitX=0.5;exitY=1;exitDx=0;exitDy=0;entryX=0.5;entryY=0;entryDx=0;entryDy=0;" parent="1" source="izBXapqjGtcnsGhw-jov-5" target="izBXapqjGtcnsGhw-jov-7" edge="1">
          <mxGeometry relative="1" as="geometry"/>
        </mxCell>
        <mxCell id="izBXapqjGtcnsGhw-jov-5" value="y++; yy=0" style="rounded=0;whiteSpace=wrap;html=1;" parent="1" vertex="1">
          <mxGeometry x="248" y="1250" width="120" height="50" as="geometry"/>
        </mxCell>
        <mxCell id="izBXapqjGtcnsGhw-jov-12" style="edgeStyle=orthogonalEdgeStyle;rounded=0;orthogonalLoop=1;jettySize=auto;html=1;exitX=0;exitY=0.5;exitDx=0;exitDy=0;entryX=0;entryY=0.5;entryDx=0;entryDy=0;" parent="1" source="izBXapqjGtcnsGhw-jov-7" target="izBXapqjGtcnsGhw-jov-2" edge="1">
          <mxGeometry relative="1" as="geometry"/>
        </mxCell>
        <mxCell id="auwsxaL8pGVmZaIofMwK-8" style="edgeStyle=orthogonalEdgeStyle;rounded=0;orthogonalLoop=1;jettySize=auto;html=1;exitX=0.5;exitY=1;exitDx=0;exitDy=0;entryX=0.5;entryY=0;entryDx=0;entryDy=0;" edge="1" parent="1" source="izBXapqjGtcnsGhw-jov-7" target="izBXapqjGtcnsGhw-jov-9">
          <mxGeometry relative="1" as="geometry"/>
        </mxCell>
        <mxCell id="izBXapqjGtcnsGhw-jov-7" value="j=1, 2...n" style="shape=hexagon;perimeter=hexagonPerimeter2;whiteSpace=wrap;html=1;" parent="1" vertex="1">
          <mxGeometry x="250" y="1329" width="118" height="41" as="geometry"/>
        </mxCell>
        <mxCell id="izBXapqjGtcnsGhw-jov-10" style="edgeStyle=orthogonalEdgeStyle;rounded=0;orthogonalLoop=1;jettySize=auto;html=1;exitX=1;exitY=0.5;exitDx=0;exitDy=0;entryX=1;entryY=0.5;entryDx=0;entryDy=0;" parent="1" source="izBXapqjGtcnsGhw-jov-9" target="izBXapqjGtcnsGhw-jov-7" edge="1">
          <mxGeometry relative="1" as="geometry"/>
        </mxCell>
        <mxCell id="izBXapqjGtcnsGhw-jov-9" value="rr[y,yy] = resistance[i,j]" style="rounded=0;whiteSpace=wrap;html=1;" parent="1" vertex="1">
          <mxGeometry x="250" y="1400" width="110" height="41" as="geometry"/>
        </mxCell>
        <mxCell id="xFAslDbXmybDTOddt1iY-4" style="edgeStyle=orthogonalEdgeStyle;rounded=0;orthogonalLoop=1;jettySize=auto;html=1;exitX=0.5;exitY=1;exitDx=0;exitDy=0;entryX=0.5;entryY=0;entryDx=0;entryDy=0;" parent="1" source="xFAslDbXmybDTOddt1iY-1" target="xFAslDbXmybDTOddt1iY-3" edge="1">
          <mxGeometry relative="1" as="geometry"/>
        </mxCell>
        <mxCell id="xFAslDbXmybDTOddt1iY-7" style="edgeStyle=orthogonalEdgeStyle;rounded=0;orthogonalLoop=1;jettySize=auto;html=1;exitX=1;exitY=0.5;exitDx=0;exitDy=0;" parent="1" source="xFAslDbXmybDTOddt1iY-1" edge="1">
          <mxGeometry relative="1" as="geometry">
            <mxPoint x="300" y="1680" as="targetPoint"/>
          </mxGeometry>
        </mxCell>
        <mxCell id="xFAslDbXmybDTOddt1iY-1" value="j=0, 1...n-1" style="shape=hexagon;perimeter=hexagonPerimeter2;whiteSpace=wrap;html=1;" parent="1" vertex="1">
          <mxGeometry x="351" y="1460" width="120" height="50" as="geometry"/>
        </mxCell>
        <mxCell id="xFAslDbXmybDTOddt1iY-6" style="edgeStyle=orthogonalEdgeStyle;rounded=0;orthogonalLoop=1;jettySize=auto;html=1;exitX=0;exitY=0.5;exitDx=0;exitDy=0;entryX=0;entryY=0.5;entryDx=0;entryDy=0;" parent="1" source="xFAslDbXmybDTOddt1iY-3" target="xFAslDbXmybDTOddt1iY-1" edge="1">
          <mxGeometry relative="1" as="geometry"/>
        </mxCell>
        <mxCell id="xFAslDbXmybDTOddt1iY-3" value="cc[j]=current[g];g++" style="rounded=0;whiteSpace=wrap;html=1;" parent="1" vertex="1">
          <mxGeometry x="353" y="1529" width="120" height="60" as="geometry"/>
        </mxCell>
        <mxCell id="2J_Hg3NmLjrdimVtRc8O-1" style="edgeStyle=orthogonalEdgeStyle;rounded=0;orthogonalLoop=1;jettySize=auto;html=1;exitX=0.5;exitY=1;exitDx=0;exitDy=0;entryX=0.5;entryY=0;entryDx=0;entryDy=0;" parent="1" source="xFAslDbXmybDTOddt1iY-8" target="xFAslDbXmybDTOddt1iY-12" edge="1">
          <mxGeometry relative="1" as="geometry"/>
        </mxCell>
        <mxCell id="xFAslDbXmybDTOddt1iY-8" value="Meth_d_f(n,rr,cc)" style="shape=process;whiteSpace=wrap;html=1;backgroundOutline=1;" parent="1" vertex="1">
          <mxGeometry x="240" y="1680" width="120" height="60" as="geometry"/>
        </mxCell>
        <mxCell id="xFAslDbXmybDTOddt1iY-9" value="END" style="ellipse;whiteSpace=wrap;html=1;" parent="1" vertex="1">
          <mxGeometry x="240" y="1830" width="120" height="40" as="geometry"/>
        </mxCell>
        <mxCell id="xFAslDbXmybDTOddt1iY-14" style="edgeStyle=orthogonalEdgeStyle;rounded=0;orthogonalLoop=1;jettySize=auto;html=1;exitX=0.5;exitY=1;exitDx=0;exitDy=0;entryX=0.5;entryY=0;entryDx=0;entryDy=0;" parent="1" source="xFAslDbXmybDTOddt1iY-12" target="xFAslDbXmybDTOddt1iY-9" edge="1">
          <mxGeometry relative="1" as="geometry"/>
        </mxCell>
        <mxCell id="xFAslDbXmybDTOddt1iY-12" value="res" style="shape=parallelogram;perimeter=parallelogramPerimeter;whiteSpace=wrap;html=1;" parent="1" vertex="1">
          <mxGeometry x="240" y="1780" width="120" height="25" as="geometry"/>
        </mxCell>
        <mxCell id="qNZzvR_LKymBJDpkRvmp-1" value="Метод Main" style="text;html=1;align=center;verticalAlign=middle;resizable=0;points=[];;autosize=1;" parent="1" vertex="1">
          <mxGeometry x="266" y="20" width="80" height="20" as="geometry"/>
        </mxCell>
        <mxCell id="2J_Hg3NmLjrdimVtRc8O-3" value="n = n-1" style="rounded=0;whiteSpace=wrap;html=1;" parent="1" vertex="1">
          <mxGeometry x="248" y="1610" width="106" height="45" as="geometry"/>
        </mxCell>
        <mxCell id="auwsxaL8pGVmZaIofMwK-1" value="&lt;font style=&quot;font-size: 14px&quot;&gt;4.1 Блок-схема програми&amp;nbsp;&lt;/font&gt;" style="text;html=1;align=center;verticalAlign=middle;resizable=0;points=[];;autosize=1;" vertex="1" parent="1">
          <mxGeometry x="40" y="10" width="190" height="20" as="geometry"/>
        </mxCell>
        <mxCell id="auwsxaL8pGVmZaIofMwK-4" value="1" style="ellipse;whiteSpace=wrap;html=1;aspect=fixed;" vertex="1" parent="1">
          <mxGeometry x="449" y="1140" width="20" height="20" as="geometry"/>
        </mxCell>
        <mxCell id="auwsxaL8pGVmZaIofMwK-5" value="1" style="ellipse;whiteSpace=wrap;html=1;aspect=fixed;" vertex="1" parent="1">
          <mxGeometry x="297" y="1169" width="16" height="16" as="geometry"/>
        </mxCell>
      </root>
    </mxGraphModel>
  </diagram>
  <diagram id="-5zI5CnGiUgTa9u2x4No" name="Page-2">
    <mxGraphModel dx="2052" dy="1188" grid="1" gridSize="10" guides="1" tooltips="1" connect="1" arrows="1" fold="1" page="1" pageScale="1" pageWidth="827" pageHeight="1169" math="0" shadow="0">
      <root>
        <mxCell id="Hk712EDX3hSfWrgYV0ay-0"/>
        <mxCell id="Hk712EDX3hSfWrgYV0ay-1" parent="Hk712EDX3hSfWrgYV0ay-0"/>
        <mxCell id="-SnhkpdncMNm4-J2hBvy-0" value="Метод FileRead" style="text;html=1;align=center;verticalAlign=middle;resizable=0;points=[];;autosize=1;" parent="Hk712EDX3hSfWrgYV0ay-1" vertex="1">
          <mxGeometry x="237" y="37" width="100" height="20" as="geometry"/>
        </mxCell>
        <mxCell id="-SnhkpdncMNm4-J2hBvy-12" style="edgeStyle=orthogonalEdgeStyle;rounded=0;orthogonalLoop=1;jettySize=auto;html=1;exitX=0.5;exitY=1;exitDx=0;exitDy=0;entryX=0.5;entryY=0;entryDx=0;entryDy=0;" parent="Hk712EDX3hSfWrgYV0ay-1" source="-SnhkpdncMNm4-J2hBvy-1" edge="1">
          <mxGeometry relative="1" as="geometry">
            <mxPoint x="287" y="140" as="targetPoint"/>
          </mxGeometry>
        </mxCell>
        <mxCell id="-SnhkpdncMNm4-J2hBvy-1" value="FileRead(double&lt;br&gt;[,]Om, double [] Amp)" style="ellipse;whiteSpace=wrap;html=1;" parent="Hk712EDX3hSfWrgYV0ay-1" vertex="1">
          <mxGeometry x="201.5" y="60" width="171" height="60" as="geometry"/>
        </mxCell>
        <mxCell id="-SnhkpdncMNm4-J2hBvy-13" style="edgeStyle=orthogonalEdgeStyle;rounded=0;orthogonalLoop=1;jettySize=auto;html=1;exitX=0.5;exitY=1;exitDx=0;exitDy=0;entryX=0.5;entryY=0;entryDx=0;entryDy=0;" parent="Hk712EDX3hSfWrgYV0ay-1" target="-SnhkpdncMNm4-J2hBvy-3" edge="1">
          <mxGeometry relative="1" as="geometry">
            <mxPoint x="287" y="180" as="sourcePoint"/>
          </mxGeometry>
        </mxCell>
        <mxCell id="-SnhkpdncMNm4-J2hBvy-10" style="edgeStyle=orthogonalEdgeStyle;rounded=0;orthogonalLoop=1;jettySize=auto;html=1;exitX=0.5;exitY=1;exitDx=0;exitDy=0;entryX=0.5;entryY=0;entryDx=0;entryDy=0;" parent="Hk712EDX3hSfWrgYV0ay-1" source="-SnhkpdncMNm4-J2hBvy-3" target="-SnhkpdncMNm4-J2hBvy-4" edge="1">
          <mxGeometry relative="1" as="geometry"/>
        </mxCell>
        <mxCell id="-SnhkpdncMNm4-J2hBvy-15" style="edgeStyle=orthogonalEdgeStyle;rounded=0;orthogonalLoop=1;jettySize=auto;html=1;exitX=1;exitY=0.5;exitDx=0;exitDy=0;" parent="Hk712EDX3hSfWrgYV0ay-1" source="-SnhkpdncMNm4-J2hBvy-3" edge="1">
          <mxGeometry relative="1" as="geometry">
            <mxPoint x="380" y="500" as="targetPoint"/>
          </mxGeometry>
        </mxCell>
        <mxCell id="-SnhkpdncMNm4-J2hBvy-3" value="i=0, 1...n" style="shape=hexagon;perimeter=hexagonPerimeter2;whiteSpace=wrap;html=1;" parent="Hk712EDX3hSfWrgYV0ay-1" vertex="1">
          <mxGeometry x="227" y="220" width="120" height="50" as="geometry"/>
        </mxCell>
        <mxCell id="-SnhkpdncMNm4-J2hBvy-11" style="edgeStyle=orthogonalEdgeStyle;rounded=0;orthogonalLoop=1;jettySize=auto;html=1;exitX=0.5;exitY=1;exitDx=0;exitDy=0;entryX=0.5;entryY=0;entryDx=0;entryDy=0;" parent="Hk712EDX3hSfWrgYV0ay-1" source="-SnhkpdncMNm4-J2hBvy-4" target="-SnhkpdncMNm4-J2hBvy-5" edge="1">
          <mxGeometry relative="1" as="geometry"/>
        </mxCell>
        <mxCell id="-SnhkpdncMNm4-J2hBvy-4" value="r = R[i].Split(&#39;,&#39;);" style="rounded=0;whiteSpace=wrap;html=1;" parent="Hk712EDX3hSfWrgYV0ay-1" vertex="1">
          <mxGeometry x="227" y="290" width="120" height="40" as="geometry"/>
        </mxCell>
        <mxCell id="-SnhkpdncMNm4-J2hBvy-7" style="edgeStyle=orthogonalEdgeStyle;rounded=0;orthogonalLoop=1;jettySize=auto;html=1;exitX=0.5;exitY=1;exitDx=0;exitDy=0;entryX=0.5;entryY=0;entryDx=0;entryDy=0;" parent="Hk712EDX3hSfWrgYV0ay-1" source="-SnhkpdncMNm4-J2hBvy-5" target="-SnhkpdncMNm4-J2hBvy-6" edge="1">
          <mxGeometry relative="1" as="geometry"/>
        </mxCell>
        <mxCell id="-SnhkpdncMNm4-J2hBvy-9" style="edgeStyle=orthogonalEdgeStyle;rounded=0;orthogonalLoop=1;jettySize=auto;html=1;exitX=0;exitY=0.5;exitDx=0;exitDy=0;entryX=0;entryY=0.5;entryDx=0;entryDy=0;" parent="Hk712EDX3hSfWrgYV0ay-1" source="-SnhkpdncMNm4-J2hBvy-5" target="-SnhkpdncMNm4-J2hBvy-3" edge="1">
          <mxGeometry relative="1" as="geometry"/>
        </mxCell>
        <mxCell id="-SnhkpdncMNm4-J2hBvy-5" value="j=0,1...5" style="shape=hexagon;perimeter=hexagonPerimeter2;whiteSpace=wrap;html=1;" parent="Hk712EDX3hSfWrgYV0ay-1" vertex="1">
          <mxGeometry x="227" y="350" width="120" height="50" as="geometry"/>
        </mxCell>
        <mxCell id="-SnhkpdncMNm4-J2hBvy-8" style="edgeStyle=orthogonalEdgeStyle;rounded=0;orthogonalLoop=1;jettySize=auto;html=1;exitX=1;exitY=0.5;exitDx=0;exitDy=0;entryX=1;entryY=0.5;entryDx=0;entryDy=0;" parent="Hk712EDX3hSfWrgYV0ay-1" source="-SnhkpdncMNm4-J2hBvy-6" target="-SnhkpdncMNm4-J2hBvy-5" edge="1">
          <mxGeometry relative="1" as="geometry"/>
        </mxCell>
        <mxCell id="-SnhkpdncMNm4-J2hBvy-6" value="Om(i,j) = r[i]" style="rounded=0;whiteSpace=wrap;html=1;" parent="Hk712EDX3hSfWrgYV0ay-1" vertex="1">
          <mxGeometry x="230" y="420" width="117" height="40" as="geometry"/>
        </mxCell>
        <mxCell id="-SnhkpdncMNm4-J2hBvy-17" style="edgeStyle=orthogonalEdgeStyle;rounded=0;orthogonalLoop=1;jettySize=auto;html=1;exitX=0.5;exitY=1;exitDx=0;exitDy=0;entryX=0.5;entryY=0;entryDx=0;entryDy=0;" parent="Hk712EDX3hSfWrgYV0ay-1" source="-SnhkpdncMNm4-J2hBvy-14" target="-SnhkpdncMNm4-J2hBvy-16" edge="1">
          <mxGeometry relative="1" as="geometry"/>
        </mxCell>
        <mxCell id="-SnhkpdncMNm4-J2hBvy-19" style="edgeStyle=orthogonalEdgeStyle;rounded=0;orthogonalLoop=1;jettySize=auto;html=1;exitX=1;exitY=0.5;exitDx=0;exitDy=0;" parent="Hk712EDX3hSfWrgYV0ay-1" source="-SnhkpdncMNm4-J2hBvy-14" edge="1">
          <mxGeometry relative="1" as="geometry">
            <mxPoint x="290" y="730" as="targetPoint"/>
          </mxGeometry>
        </mxCell>
        <mxCell id="-SnhkpdncMNm4-J2hBvy-14" value="j=0,1...5" style="shape=hexagon;perimeter=hexagonPerimeter2;whiteSpace=wrap;html=1;" parent="Hk712EDX3hSfWrgYV0ay-1" vertex="1">
          <mxGeometry x="320" y="500" width="120" height="40" as="geometry"/>
        </mxCell>
        <mxCell id="-SnhkpdncMNm4-J2hBvy-18" style="edgeStyle=orthogonalEdgeStyle;rounded=0;orthogonalLoop=1;jettySize=auto;html=1;exitX=0;exitY=0.5;exitDx=0;exitDy=0;entryX=0;entryY=0.5;entryDx=0;entryDy=0;" parent="Hk712EDX3hSfWrgYV0ay-1" source="-SnhkpdncMNm4-J2hBvy-16" target="-SnhkpdncMNm4-J2hBvy-14" edge="1">
          <mxGeometry relative="1" as="geometry"/>
        </mxCell>
        <mxCell id="-SnhkpdncMNm4-J2hBvy-16" value="Amp[j]= A[j];" style="rounded=0;whiteSpace=wrap;html=1;" parent="Hk712EDX3hSfWrgYV0ay-1" vertex="1">
          <mxGeometry x="320" y="570" width="120" height="60" as="geometry"/>
        </mxCell>
        <mxCell id="Jduluu5y__V7FLZmwUSC-1" style="edgeStyle=orthogonalEdgeStyle;rounded=0;orthogonalLoop=1;jettySize=auto;html=1;exitX=0.5;exitY=1;exitDx=0;exitDy=0;" edge="1" parent="Hk712EDX3hSfWrgYV0ay-1" source="-SnhkpdncMNm4-J2hBvy-20" target="IUulCQt2UT3yoT6G2cpS-0">
          <mxGeometry relative="1" as="geometry"/>
        </mxCell>
        <mxCell id="-SnhkpdncMNm4-J2hBvy-20" value="Om,Amp" style="shape=parallelogram;perimeter=parallelogramPerimeter;whiteSpace=wrap;html=1;" parent="Hk712EDX3hSfWrgYV0ay-1" vertex="1">
          <mxGeometry x="230" y="730" width="120" height="60" as="geometry"/>
        </mxCell>
        <mxCell id="IUulCQt2UT3yoT6G2cpS-0" value="END" style="ellipse;whiteSpace=wrap;html=1;" vertex="1" parent="Hk712EDX3hSfWrgYV0ay-1">
          <mxGeometry x="221.5" y="840" width="137" height="50" as="geometry"/>
        </mxCell>
        <mxCell id="Jduluu5y__V7FLZmwUSC-0" style="edgeStyle=orthogonalEdgeStyle;rounded=0;orthogonalLoop=1;jettySize=auto;html=1;exitX=0.5;exitY=1;exitDx=0;exitDy=0;" edge="1" parent="Hk712EDX3hSfWrgYV0ay-1" source="IUulCQt2UT3yoT6G2cpS-0" target="IUulCQt2UT3yoT6G2cpS-0">
          <mxGeometry relative="1" as="geometry"/>
        </mxCell>
        <mxCell id="8Baf8cAhT6-zPp4BKLsP-0" value="R&lt;br&gt;A" style="shape=parallelogram;perimeter=parallelogramPerimeter;whiteSpace=wrap;html=1;" vertex="1" parent="Hk712EDX3hSfWrgYV0ay-1">
          <mxGeometry x="227" y="140" width="120" height="60" as="geometry"/>
        </mxCell>
        <mxCell id="8Baf8cAhT6-zPp4BKLsP-3" style="edgeStyle=orthogonalEdgeStyle;rounded=0;orthogonalLoop=1;jettySize=auto;html=1;exitX=0;exitY=0.5;exitDx=0;exitDy=0;exitPerimeter=0;entryX=1;entryY=0.25;entryDx=0;entryDy=0;" edge="1" parent="Hk712EDX3hSfWrgYV0ay-1" source="8Baf8cAhT6-zPp4BKLsP-1" target="8Baf8cAhT6-zPp4BKLsP-0">
          <mxGeometry relative="1" as="geometry"/>
        </mxCell>
        <mxCell id="8Baf8cAhT6-zPp4BKLsP-1" value="" style="strokeWidth=2;html=1;shape=mxgraph.flowchart.database;whiteSpace=wrap;" vertex="1" parent="Hk712EDX3hSfWrgYV0ay-1">
          <mxGeometry x="430" y="120" width="20" height="50" as="geometry"/>
        </mxCell>
        <mxCell id="8Baf8cAhT6-zPp4BKLsP-4" style="edgeStyle=orthogonalEdgeStyle;rounded=0;orthogonalLoop=1;jettySize=auto;html=1;exitX=0;exitY=0.5;exitDx=0;exitDy=0;exitPerimeter=0;entryX=1;entryY=0.75;entryDx=0;entryDy=0;" edge="1" parent="Hk712EDX3hSfWrgYV0ay-1" source="8Baf8cAhT6-zPp4BKLsP-2" target="8Baf8cAhT6-zPp4BKLsP-0">
          <mxGeometry relative="1" as="geometry"/>
        </mxCell>
        <mxCell id="8Baf8cAhT6-zPp4BKLsP-2" value="" style="strokeWidth=2;html=1;shape=mxgraph.flowchart.database;whiteSpace=wrap;" vertex="1" parent="Hk712EDX3hSfWrgYV0ay-1">
          <mxGeometry x="430" y="180" width="20" height="50" as="geometry"/>
        </mxCell>
      </root>
    </mxGraphModel>
  </diagram>
  <diagram id="p57nv_tD8SISx942yG7g" name="Page-3">
    <mxGraphModel dx="2052" dy="1188" grid="1" gridSize="10" guides="1" tooltips="1" connect="1" arrows="1" fold="1" page="1" pageScale="1" pageWidth="827" pageHeight="1169" math="0" shadow="0">
      <root>
        <mxCell id="L5BItPMsuKd6NMdBkNMf-0"/>
        <mxCell id="L5BItPMsuKd6NMdBkNMf-1" parent="L5BItPMsuKd6NMdBkNMf-0"/>
        <mxCell id="C2eHeEe5Y4A9ws2jBd5C-0" value="Метод Matrix" style="text;html=1;align=center;verticalAlign=middle;resizable=0;points=[];;autosize=1;" parent="L5BItPMsuKd6NMdBkNMf-1" vertex="1">
          <mxGeometry x="211" y="21" width="90" height="20" as="geometry"/>
        </mxCell>
        <mxCell id="C2eHeEe5Y4A9ws2jBd5C-11" style="edgeStyle=orthogonalEdgeStyle;rounded=0;orthogonalLoop=1;jettySize=auto;html=1;exitX=0.5;exitY=1;exitDx=0;exitDy=0;entryX=0.5;entryY=0;entryDx=0;entryDy=0;" parent="L5BItPMsuKd6NMdBkNMf-1" source="C2eHeEe5Y4A9ws2jBd5C-1" target="C2eHeEe5Y4A9ws2jBd5C-2" edge="1">
          <mxGeometry relative="1" as="geometry"/>
        </mxCell>
        <mxCell id="C2eHeEe5Y4A9ws2jBd5C-1" value="Matrix(double[,] Matrix, double [,] r , int n)" style="ellipse;whiteSpace=wrap;html=1;" parent="L5BItPMsuKd6NMdBkNMf-1" vertex="1">
          <mxGeometry x="176" y="41" width="160" height="60" as="geometry"/>
        </mxCell>
        <mxCell id="C2eHeEe5Y4A9ws2jBd5C-13" style="edgeStyle=orthogonalEdgeStyle;rounded=0;orthogonalLoop=1;jettySize=auto;html=1;exitX=0.5;exitY=1;exitDx=0;exitDy=0;entryX=0.5;entryY=0;entryDx=0;entryDy=0;" parent="L5BItPMsuKd6NMdBkNMf-1" source="C2eHeEe5Y4A9ws2jBd5C-2" target="C2eHeEe5Y4A9ws2jBd5C-12" edge="1">
          <mxGeometry relative="1" as="geometry"/>
        </mxCell>
        <mxCell id="C2eHeEe5Y4A9ws2jBd5C-15" style="edgeStyle=orthogonalEdgeStyle;rounded=0;orthogonalLoop=1;jettySize=auto;html=1;exitX=1;exitY=0.5;exitDx=0;exitDy=0;" parent="L5BItPMsuKd6NMdBkNMf-1" source="C2eHeEe5Y4A9ws2jBd5C-2" edge="1">
          <mxGeometry relative="1" as="geometry">
            <mxPoint x="410" y="640" as="targetPoint"/>
          </mxGeometry>
        </mxCell>
        <mxCell id="C2eHeEe5Y4A9ws2jBd5C-2" value="i=0,1...n" style="shape=hexagon;perimeter=hexagonPerimeter2;whiteSpace=wrap;html=1;" parent="L5BItPMsuKd6NMdBkNMf-1" vertex="1">
          <mxGeometry x="200" y="115.5" width="120" height="40" as="geometry"/>
        </mxCell>
        <mxCell id="C2eHeEe5Y4A9ws2jBd5C-16" style="edgeStyle=orthogonalEdgeStyle;rounded=0;orthogonalLoop=1;jettySize=auto;html=1;exitX=1;exitY=0.5;exitDx=0;exitDy=0;entryX=0.5;entryY=0;entryDx=0;entryDy=0;" parent="L5BItPMsuKd6NMdBkNMf-1" source="C2eHeEe5Y4A9ws2jBd5C-3" target="C2eHeEe5Y4A9ws2jBd5C-4" edge="1">
          <mxGeometry relative="1" as="geometry"/>
        </mxCell>
        <mxCell id="C2eHeEe5Y4A9ws2jBd5C-17" style="edgeStyle=orthogonalEdgeStyle;rounded=0;orthogonalLoop=1;jettySize=auto;html=1;exitX=0;exitY=0.5;exitDx=0;exitDy=0;entryX=0.375;entryY=0.017;entryDx=0;entryDy=0;entryPerimeter=0;" parent="L5BItPMsuKd6NMdBkNMf-1" source="C2eHeEe5Y4A9ws2jBd5C-3" target="C2eHeEe5Y4A9ws2jBd5C-5" edge="1">
          <mxGeometry relative="1" as="geometry"/>
        </mxCell>
        <mxCell id="C2eHeEe5Y4A9ws2jBd5C-3" value="r[i,j] == 0" style="rhombus;whiteSpace=wrap;html=1;" parent="L5BItPMsuKd6NMdBkNMf-1" vertex="1">
          <mxGeometry x="210" y="220" width="100" height="40" as="geometry"/>
        </mxCell>
        <mxCell id="C2eHeEe5Y4A9ws2jBd5C-19" style="edgeStyle=orthogonalEdgeStyle;rounded=0;orthogonalLoop=1;jettySize=auto;html=1;exitX=0.5;exitY=1;exitDx=0;exitDy=0;" parent="L5BItPMsuKd6NMdBkNMf-1" source="C2eHeEe5Y4A9ws2jBd5C-4" edge="1">
          <mxGeometry relative="1" as="geometry">
            <mxPoint x="270" y="360" as="targetPoint"/>
          </mxGeometry>
        </mxCell>
        <mxCell id="C2eHeEe5Y4A9ws2jBd5C-4" value="r[i,j] * 1&lt;br&gt;summ = 0" style="rounded=0;whiteSpace=wrap;html=1;" parent="L5BItPMsuKd6NMdBkNMf-1" vertex="1">
          <mxGeometry x="270" y="269" width="120" height="60" as="geometry"/>
        </mxCell>
        <mxCell id="C2eHeEe5Y4A9ws2jBd5C-18" style="edgeStyle=orthogonalEdgeStyle;rounded=0;orthogonalLoop=1;jettySize=auto;html=1;exitX=0.5;exitY=1;exitDx=0;exitDy=0;entryX=0.5;entryY=0;entryDx=0;entryDy=0;" parent="L5BItPMsuKd6NMdBkNMf-1" source="C2eHeEe5Y4A9ws2jBd5C-5" target="C2eHeEe5Y4A9ws2jBd5C-6" edge="1">
          <mxGeometry relative="1" as="geometry"/>
        </mxCell>
        <mxCell id="C2eHeEe5Y4A9ws2jBd5C-5" value="Matrix[i,j] = 1/r[i,j]&lt;br&gt;summ = 0" style="rounded=0;whiteSpace=wrap;html=1;" parent="L5BItPMsuKd6NMdBkNMf-1" vertex="1">
          <mxGeometry x="120" y="270" width="120" height="60" as="geometry"/>
        </mxCell>
        <mxCell id="C2eHeEe5Y4A9ws2jBd5C-20" style="edgeStyle=orthogonalEdgeStyle;rounded=0;orthogonalLoop=1;jettySize=auto;html=1;exitX=0.5;exitY=1;exitDx=0;exitDy=0;entryX=0.5;entryY=0;entryDx=0;entryDy=0;" parent="L5BItPMsuKd6NMdBkNMf-1" source="C2eHeEe5Y4A9ws2jBd5C-6" target="C2eHeEe5Y4A9ws2jBd5C-7" edge="1">
          <mxGeometry relative="1" as="geometry"/>
        </mxCell>
        <mxCell id="C2eHeEe5Y4A9ws2jBd5C-25" style="edgeStyle=orthogonalEdgeStyle;rounded=0;orthogonalLoop=1;jettySize=auto;html=1;exitX=1;exitY=0.5;exitDx=0;exitDy=0;entryX=0.833;entryY=0.1;entryDx=0;entryDy=0;entryPerimeter=0;" parent="L5BItPMsuKd6NMdBkNMf-1" source="C2eHeEe5Y4A9ws2jBd5C-6" target="C2eHeEe5Y4A9ws2jBd5C-9" edge="1">
          <mxGeometry relative="1" as="geometry"/>
        </mxCell>
        <mxCell id="C2eHeEe5Y4A9ws2jBd5C-6" value="k=0,1...n" style="shape=hexagon;perimeter=hexagonPerimeter2;whiteSpace=wrap;html=1;" parent="L5BItPMsuKd6NMdBkNMf-1" vertex="1">
          <mxGeometry x="210" y="370" width="120" height="40" as="geometry"/>
        </mxCell>
        <mxCell id="C2eHeEe5Y4A9ws2jBd5C-23" style="edgeStyle=orthogonalEdgeStyle;rounded=0;orthogonalLoop=1;jettySize=auto;html=1;exitX=0;exitY=0.5;exitDx=0;exitDy=0;" parent="L5BItPMsuKd6NMdBkNMf-1" source="C2eHeEe5Y4A9ws2jBd5C-7" edge="1">
          <mxGeometry relative="1" as="geometry">
            <mxPoint x="210" y="390" as="targetPoint"/>
          </mxGeometry>
        </mxCell>
        <mxCell id="HLI1jv-ws_kQXQVdRyf1-0" style="edgeStyle=orthogonalEdgeStyle;rounded=0;orthogonalLoop=1;jettySize=auto;html=1;exitX=1;exitY=0.5;exitDx=0;exitDy=0;entryX=0.5;entryY=0;entryDx=0;entryDy=0;" edge="1" parent="L5BItPMsuKd6NMdBkNMf-1" source="C2eHeEe5Y4A9ws2jBd5C-7" target="C2eHeEe5Y4A9ws2jBd5C-8">
          <mxGeometry relative="1" as="geometry"/>
        </mxCell>
        <mxCell id="C2eHeEe5Y4A9ws2jBd5C-7" value="r[i,k]!=0" style="rhombus;whiteSpace=wrap;html=1;" parent="L5BItPMsuKd6NMdBkNMf-1" vertex="1">
          <mxGeometry x="230" y="425" width="80" height="40" as="geometry"/>
        </mxCell>
        <mxCell id="C2eHeEe5Y4A9ws2jBd5C-22" style="edgeStyle=orthogonalEdgeStyle;rounded=0;orthogonalLoop=1;jettySize=auto;html=1;exitX=0;exitY=0.5;exitDx=0;exitDy=0;entryX=0;entryY=0.5;entryDx=0;entryDy=0;" parent="L5BItPMsuKd6NMdBkNMf-1" source="C2eHeEe5Y4A9ws2jBd5C-8" target="C2eHeEe5Y4A9ws2jBd5C-6" edge="1">
          <mxGeometry relative="1" as="geometry"/>
        </mxCell>
        <mxCell id="C2eHeEe5Y4A9ws2jBd5C-8" value="summ+1/r[i,k]" style="rounded=0;whiteSpace=wrap;html=1;" parent="L5BItPMsuKd6NMdBkNMf-1" vertex="1">
          <mxGeometry x="210" y="500" width="120" height="60" as="geometry"/>
        </mxCell>
        <mxCell id="C2eHeEe5Y4A9ws2jBd5C-26" style="edgeStyle=orthogonalEdgeStyle;rounded=0;orthogonalLoop=1;jettySize=auto;html=1;exitX=1;exitY=0.5;exitDx=0;exitDy=0;entryX=1;entryY=0.5;entryDx=0;entryDy=0;" parent="L5BItPMsuKd6NMdBkNMf-1" source="C2eHeEe5Y4A9ws2jBd5C-9" target="C2eHeEe5Y4A9ws2jBd5C-12" edge="1">
          <mxGeometry relative="1" as="geometry"/>
        </mxCell>
        <mxCell id="C2eHeEe5Y4A9ws2jBd5C-9" value="Matrix[i,j] = -1*summ" style="rounded=0;whiteSpace=wrap;html=1;" parent="L5BItPMsuKd6NMdBkNMf-1" vertex="1">
          <mxGeometry x="256" y="570" width="120" height="60" as="geometry"/>
        </mxCell>
        <mxCell id="Gy0NgJgWgDQEz3VEKPUZ-1" style="edgeStyle=orthogonalEdgeStyle;rounded=0;orthogonalLoop=1;jettySize=auto;html=1;exitX=0.5;exitY=1;exitDx=0;exitDy=0;entryX=0.5;entryY=0;entryDx=0;entryDy=0;" edge="1" parent="L5BItPMsuKd6NMdBkNMf-1" source="C2eHeEe5Y4A9ws2jBd5C-10" target="Gy0NgJgWgDQEz3VEKPUZ-0">
          <mxGeometry relative="1" as="geometry"/>
        </mxCell>
        <mxCell id="C2eHeEe5Y4A9ws2jBd5C-10" value="Matrix" style="shape=parallelogram;perimeter=parallelogramPerimeter;whiteSpace=wrap;html=1;" parent="L5BItPMsuKd6NMdBkNMf-1" vertex="1">
          <mxGeometry x="350" y="640" width="120" height="60" as="geometry"/>
        </mxCell>
        <mxCell id="C2eHeEe5Y4A9ws2jBd5C-14" style="edgeStyle=orthogonalEdgeStyle;rounded=0;orthogonalLoop=1;jettySize=auto;html=1;exitX=0;exitY=0.5;exitDx=0;exitDy=0;entryX=0;entryY=0.5;entryDx=0;entryDy=0;" parent="L5BItPMsuKd6NMdBkNMf-1" source="C2eHeEe5Y4A9ws2jBd5C-12" target="C2eHeEe5Y4A9ws2jBd5C-2" edge="1">
          <mxGeometry relative="1" as="geometry"/>
        </mxCell>
        <mxCell id="C2eHeEe5Y4A9ws2jBd5C-27" style="edgeStyle=orthogonalEdgeStyle;rounded=0;orthogonalLoop=1;jettySize=auto;html=1;exitX=0.5;exitY=1;exitDx=0;exitDy=0;entryX=0.5;entryY=0;entryDx=0;entryDy=0;" parent="L5BItPMsuKd6NMdBkNMf-1" source="C2eHeEe5Y4A9ws2jBd5C-12" target="C2eHeEe5Y4A9ws2jBd5C-3" edge="1">
          <mxGeometry relative="1" as="geometry"/>
        </mxCell>
        <mxCell id="C2eHeEe5Y4A9ws2jBd5C-12" value="j=0,1...n" style="shape=hexagon;perimeter=hexagonPerimeter2;whiteSpace=wrap;html=1;" parent="L5BItPMsuKd6NMdBkNMf-1" vertex="1">
          <mxGeometry x="200" y="170" width="120" height="40" as="geometry"/>
        </mxCell>
        <mxCell id="Gy0NgJgWgDQEz3VEKPUZ-0" value="END" style="ellipse;whiteSpace=wrap;html=1;" vertex="1" parent="L5BItPMsuKd6NMdBkNMf-1">
          <mxGeometry x="266" y="750" width="120" height="50" as="geometry"/>
        </mxCell>
      </root>
    </mxGraphModel>
  </diagram>
  <diagram id="n3XCRWWsvdlckutLFZy0" name="Page-4">
    <mxGraphModel dx="2052" dy="1188" grid="1" gridSize="10" guides="1" tooltips="1" connect="1" arrows="1" fold="1" page="1" pageScale="1" pageWidth="827" pageHeight="1169" math="0" shadow="0">
      <root>
        <mxCell id="49rADTo3t_2bk2HtjCL9-0"/>
        <mxCell id="49rADTo3t_2bk2HtjCL9-1" parent="49rADTo3t_2bk2HtjCL9-0"/>
        <mxCell id="51wt2zONH8p5RieQJXkk-0" value="Метод &amp;nbsp;Meth_d_f" style="text;html=1;align=center;verticalAlign=middle;resizable=0;points=[];;autosize=1;" parent="49rADTo3t_2bk2HtjCL9-1" vertex="1">
          <mxGeometry x="202" y="25" width="110" height="20" as="geometry"/>
        </mxCell>
        <mxCell id="jX-48yTk-Yype19WnK9--0" style="edgeStyle=orthogonalEdgeStyle;rounded=0;orthogonalLoop=1;jettySize=auto;html=1;exitX=0.5;exitY=1;exitDx=0;exitDy=0;entryX=0.5;entryY=0;entryDx=0;entryDy=0;" parent="49rADTo3t_2bk2HtjCL9-1" source="51wt2zONH8p5RieQJXkk-1" target="51wt2zONH8p5RieQJXkk-2" edge="1">
          <mxGeometry relative="1" as="geometry"/>
        </mxCell>
        <mxCell id="51wt2zONH8p5RieQJXkk-1" value="&amp;nbsp;Meth_d_f(int n, double[,] rr, double [] cc)" style="ellipse;whiteSpace=wrap;html=1;" parent="49rADTo3t_2bk2HtjCL9-1" vertex="1">
          <mxGeometry x="140.5" y="70" width="233" height="50" as="geometry"/>
        </mxCell>
        <mxCell id="51wt2zONH8p5RieQJXkk-4" style="edgeStyle=orthogonalEdgeStyle;rounded=0;orthogonalLoop=1;jettySize=auto;html=1;exitX=0.5;exitY=1;exitDx=0;exitDy=0;entryX=0.5;entryY=0;entryDx=0;entryDy=0;" parent="49rADTo3t_2bk2HtjCL9-1" source="51wt2zONH8p5RieQJXkk-2" target="51wt2zONH8p5RieQJXkk-3" edge="1">
          <mxGeometry relative="1" as="geometry"/>
        </mxCell>
        <mxCell id="51wt2zONH8p5RieQJXkk-28" style="edgeStyle=orthogonalEdgeStyle;rounded=0;orthogonalLoop=1;jettySize=auto;html=1;exitX=0;exitY=0.5;exitDx=0;exitDy=0;entryX=0.5;entryY=0;entryDx=0;entryDy=0;" parent="49rADTo3t_2bk2HtjCL9-1" source="51wt2zONH8p5RieQJXkk-2" target="51wt2zONH8p5RieQJXkk-26" edge="1">
          <mxGeometry relative="1" as="geometry"/>
        </mxCell>
        <mxCell id="51wt2zONH8p5RieQJXkk-2" value="k=0,1...n" style="shape=hexagon;perimeter=hexagonPerimeter2;whiteSpace=wrap;html=1;" parent="49rADTo3t_2bk2HtjCL9-1" vertex="1">
          <mxGeometry x="197" y="150" width="120" height="40" as="geometry"/>
        </mxCell>
        <mxCell id="51wt2zONH8p5RieQJXkk-16" style="edgeStyle=orthogonalEdgeStyle;rounded=0;orthogonalLoop=1;jettySize=auto;html=1;exitX=0.5;exitY=1;exitDx=0;exitDy=0;entryX=0.5;entryY=0;entryDx=0;entryDy=0;" parent="49rADTo3t_2bk2HtjCL9-1" source="51wt2zONH8p5RieQJXkk-3" target="51wt2zONH8p5RieQJXkk-6" edge="1">
          <mxGeometry relative="1" as="geometry"/>
        </mxCell>
        <mxCell id="51wt2zONH8p5RieQJXkk-3" value="rr[k,k] = 1/rr[k,k]" style="rounded=0;whiteSpace=wrap;html=1;" parent="49rADTo3t_2bk2HtjCL9-1" vertex="1">
          <mxGeometry x="197" y="240" width="120" height="40" as="geometry"/>
        </mxCell>
        <mxCell id="51wt2zONH8p5RieQJXkk-14" style="edgeStyle=orthogonalEdgeStyle;rounded=0;orthogonalLoop=1;jettySize=auto;html=1;exitX=0.5;exitY=1;exitDx=0;exitDy=0;entryX=0.5;entryY=0;entryDx=0;entryDy=0;" parent="49rADTo3t_2bk2HtjCL9-1" source="51wt2zONH8p5RieQJXkk-6" target="51wt2zONH8p5RieQJXkk-7" edge="1">
          <mxGeometry relative="1" as="geometry"/>
        </mxCell>
        <mxCell id="51wt2zONH8p5RieQJXkk-15" style="edgeStyle=orthogonalEdgeStyle;rounded=0;orthogonalLoop=1;jettySize=auto;html=1;exitX=1;exitY=0.5;exitDx=0;exitDy=0;" parent="49rADTo3t_2bk2HtjCL9-1" source="51wt2zONH8p5RieQJXkk-6" edge="1">
          <mxGeometry relative="1" as="geometry">
            <mxPoint x="350" y="590" as="targetPoint"/>
          </mxGeometry>
        </mxCell>
        <mxCell id="51wt2zONH8p5RieQJXkk-6" value="i=k+1, k+2...n" style="shape=hexagon;perimeter=hexagonPerimeter2;whiteSpace=wrap;html=1;" parent="49rADTo3t_2bk2HtjCL9-1" vertex="1">
          <mxGeometry x="197" y="310" width="120" height="40" as="geometry"/>
        </mxCell>
        <mxCell id="51wt2zONH8p5RieQJXkk-9" style="edgeStyle=orthogonalEdgeStyle;rounded=0;orthogonalLoop=1;jettySize=auto;html=1;exitX=0.5;exitY=1;exitDx=0;exitDy=0;entryX=0.5;entryY=0;entryDx=0;entryDy=0;" parent="49rADTo3t_2bk2HtjCL9-1" source="51wt2zONH8p5RieQJXkk-7" target="51wt2zONH8p5RieQJXkk-8" edge="1">
          <mxGeometry relative="1" as="geometry"/>
        </mxCell>
        <mxCell id="51wt2zONH8p5RieQJXkk-7" value="rr[i,k]*= - rr[k,k]" style="rounded=0;whiteSpace=wrap;html=1;" parent="49rADTo3t_2bk2HtjCL9-1" vertex="1">
          <mxGeometry x="197" y="380" width="120" height="40" as="geometry"/>
        </mxCell>
        <mxCell id="51wt2zONH8p5RieQJXkk-11" style="edgeStyle=orthogonalEdgeStyle;rounded=0;orthogonalLoop=1;jettySize=auto;html=1;exitX=0.5;exitY=1;exitDx=0;exitDy=0;entryX=0.5;entryY=0;entryDx=0;entryDy=0;" parent="49rADTo3t_2bk2HtjCL9-1" source="51wt2zONH8p5RieQJXkk-8" target="51wt2zONH8p5RieQJXkk-10" edge="1">
          <mxGeometry relative="1" as="geometry"/>
        </mxCell>
        <mxCell id="51wt2zONH8p5RieQJXkk-25" style="edgeStyle=orthogonalEdgeStyle;rounded=0;orthogonalLoop=1;jettySize=auto;html=1;exitX=0;exitY=0.5;exitDx=0;exitDy=0;entryX=0;entryY=0.5;entryDx=0;entryDy=0;" parent="49rADTo3t_2bk2HtjCL9-1" source="51wt2zONH8p5RieQJXkk-8" target="51wt2zONH8p5RieQJXkk-6" edge="1">
          <mxGeometry relative="1" as="geometry"/>
        </mxCell>
        <mxCell id="51wt2zONH8p5RieQJXkk-8" value="j=k+1,k+2...n" style="shape=hexagon;perimeter=hexagonPerimeter2;whiteSpace=wrap;html=1;" parent="49rADTo3t_2bk2HtjCL9-1" vertex="1">
          <mxGeometry x="198" y="440" width="120" height="30" as="geometry"/>
        </mxCell>
        <mxCell id="51wt2zONH8p5RieQJXkk-12" style="edgeStyle=orthogonalEdgeStyle;rounded=0;orthogonalLoop=1;jettySize=auto;html=1;exitX=1;exitY=0.5;exitDx=0;exitDy=0;entryX=1;entryY=0.5;entryDx=0;entryDy=0;" parent="49rADTo3t_2bk2HtjCL9-1" source="51wt2zONH8p5RieQJXkk-10" target="51wt2zONH8p5RieQJXkk-8" edge="1">
          <mxGeometry relative="1" as="geometry"/>
        </mxCell>
        <mxCell id="51wt2zONH8p5RieQJXkk-10" value="rr[i,j]+=rr[i,k]*rr[k,j]" style="rounded=0;whiteSpace=wrap;html=1;" parent="49rADTo3t_2bk2HtjCL9-1" vertex="1">
          <mxGeometry x="197" y="500" width="120" height="60" as="geometry"/>
        </mxCell>
        <mxCell id="51wt2zONH8p5RieQJXkk-19" style="edgeStyle=orthogonalEdgeStyle;rounded=0;orthogonalLoop=1;jettySize=auto;html=1;exitX=0.5;exitY=1;exitDx=0;exitDy=0;" parent="49rADTo3t_2bk2HtjCL9-1" source="51wt2zONH8p5RieQJXkk-17" target="51wt2zONH8p5RieQJXkk-18" edge="1">
          <mxGeometry relative="1" as="geometry"/>
        </mxCell>
        <mxCell id="owURGbW76CcWmlwA9Vru-0" style="edgeStyle=orthogonalEdgeStyle;rounded=0;orthogonalLoop=1;jettySize=auto;html=1;exitX=1;exitY=0.5;exitDx=0;exitDy=0;entryX=1;entryY=0.5;entryDx=0;entryDy=0;" parent="49rADTo3t_2bk2HtjCL9-1" source="51wt2zONH8p5RieQJXkk-17" target="51wt2zONH8p5RieQJXkk-2" edge="1">
          <mxGeometry relative="1" as="geometry"/>
        </mxCell>
        <mxCell id="51wt2zONH8p5RieQJXkk-17" value="i=k+1,k+2...n" style="shape=hexagon;perimeter=hexagonPerimeter2;whiteSpace=wrap;html=1;size=0.16666666666666666;" parent="49rADTo3t_2bk2HtjCL9-1" vertex="1">
          <mxGeometry x="290" y="590" width="120" height="40" as="geometry"/>
        </mxCell>
        <mxCell id="51wt2zONH8p5RieQJXkk-23" style="edgeStyle=orthogonalEdgeStyle;rounded=0;orthogonalLoop=1;jettySize=auto;html=1;exitX=0;exitY=0.5;exitDx=0;exitDy=0;entryX=0;entryY=0.5;entryDx=0;entryDy=0;" parent="49rADTo3t_2bk2HtjCL9-1" source="51wt2zONH8p5RieQJXkk-18" target="51wt2zONH8p5RieQJXkk-17" edge="1">
          <mxGeometry relative="1" as="geometry"/>
        </mxCell>
        <mxCell id="51wt2zONH8p5RieQJXkk-18" value="rr[k,i]*=-rr[k,k]" style="rounded=0;whiteSpace=wrap;html=1;" parent="49rADTo3t_2bk2HtjCL9-1" vertex="1">
          <mxGeometry x="293" y="650" width="120" height="60" as="geometry"/>
        </mxCell>
        <mxCell id="51wt2zONH8p5RieQJXkk-38" style="edgeStyle=orthogonalEdgeStyle;rounded=0;orthogonalLoop=1;jettySize=auto;html=1;exitX=0;exitY=0.5;exitDx=0;exitDy=0;" parent="49rADTo3t_2bk2HtjCL9-1" source="51wt2zONH8p5RieQJXkk-26" edge="1">
          <mxGeometry relative="1" as="geometry">
            <mxPoint x="80" y="1070" as="targetPoint"/>
          </mxGeometry>
        </mxCell>
        <mxCell id="51wt2zONH8p5RieQJXkk-48" style="edgeStyle=orthogonalEdgeStyle;rounded=0;orthogonalLoop=1;jettySize=auto;html=1;exitX=0.5;exitY=1;exitDx=0;exitDy=0;entryX=0.5;entryY=0;entryDx=0;entryDy=0;" parent="49rADTo3t_2bk2HtjCL9-1" source="51wt2zONH8p5RieQJXkk-26" target="51wt2zONH8p5RieQJXkk-29" edge="1">
          <mxGeometry relative="1" as="geometry"/>
        </mxCell>
        <mxCell id="51wt2zONH8p5RieQJXkk-26" value="k=0,1...n" style="shape=hexagon;perimeter=hexagonPerimeter2;whiteSpace=wrap;html=1;" parent="49rADTo3t_2bk2HtjCL9-1" vertex="1">
          <mxGeometry x="110" y="720" width="120" height="50" as="geometry"/>
        </mxCell>
        <mxCell id="51wt2zONH8p5RieQJXkk-33" style="edgeStyle=orthogonalEdgeStyle;rounded=0;orthogonalLoop=1;jettySize=auto;html=1;exitX=0.5;exitY=1;exitDx=0;exitDy=0;entryX=0.5;entryY=0;entryDx=0;entryDy=0;" parent="49rADTo3t_2bk2HtjCL9-1" source="51wt2zONH8p5RieQJXkk-29" target="51wt2zONH8p5RieQJXkk-31" edge="1">
          <mxGeometry relative="1" as="geometry"/>
        </mxCell>
        <mxCell id="51wt2zONH8p5RieQJXkk-36" style="edgeStyle=orthogonalEdgeStyle;rounded=0;orthogonalLoop=1;jettySize=auto;html=1;exitX=0;exitY=0.5;exitDx=0;exitDy=0;entryX=0;entryY=0.5;entryDx=0;entryDy=0;" parent="49rADTo3t_2bk2HtjCL9-1" source="51wt2zONH8p5RieQJXkk-29" target="51wt2zONH8p5RieQJXkk-32" edge="1">
          <mxGeometry relative="1" as="geometry"/>
        </mxCell>
        <mxCell id="51wt2zONH8p5RieQJXkk-29" value="j=n-1,n-2...j&amp;gt;k;" style="shape=hexagon;perimeter=hexagonPerimeter2;whiteSpace=wrap;html=1;" parent="49rADTo3t_2bk2HtjCL9-1" vertex="1">
          <mxGeometry x="110" y="790" width="120" height="50" as="geometry"/>
        </mxCell>
        <mxCell id="51wt2zONH8p5RieQJXkk-35" style="edgeStyle=orthogonalEdgeStyle;rounded=0;orthogonalLoop=1;jettySize=auto;html=1;exitX=1;exitY=0.5;exitDx=0;exitDy=0;entryX=1;entryY=0.5;entryDx=0;entryDy=0;" parent="49rADTo3t_2bk2HtjCL9-1" source="51wt2zONH8p5RieQJXkk-31" target="51wt2zONH8p5RieQJXkk-29" edge="1">
          <mxGeometry relative="1" as="geometry"/>
        </mxCell>
        <mxCell id="51wt2zONH8p5RieQJXkk-31" value="cc[j]+=rr[j,k]*cc[k]" style="rounded=0;whiteSpace=wrap;html=1;" parent="49rADTo3t_2bk2HtjCL9-1" vertex="1">
          <mxGeometry x="110" y="860" width="120" height="50" as="geometry"/>
        </mxCell>
        <mxCell id="y0sOtreknEi_o8DZT5YF-3" style="edgeStyle=orthogonalEdgeStyle;rounded=0;orthogonalLoop=1;jettySize=auto;html=1;exitX=1;exitY=0.5;exitDx=0;exitDy=0;" edge="1" parent="49rADTo3t_2bk2HtjCL9-1" source="51wt2zONH8p5RieQJXkk-32">
          <mxGeometry relative="1" as="geometry">
            <mxPoint x="280" y="740" as="targetPoint"/>
          </mxGeometry>
        </mxCell>
        <mxCell id="51wt2zONH8p5RieQJXkk-32" value="cc[k] *= rr[k,k]" style="rounded=0;whiteSpace=wrap;html=1;" parent="49rADTo3t_2bk2HtjCL9-1" vertex="1">
          <mxGeometry x="110" y="940" width="120" height="60" as="geometry"/>
        </mxCell>
        <mxCell id="51wt2zONH8p5RieQJXkk-39" value="" style="endArrow=none;html=1;" parent="49rADTo3t_2bk2HtjCL9-1" edge="1">
          <mxGeometry width="50" height="50" relative="1" as="geometry">
            <mxPoint x="78" y="1070" as="sourcePoint"/>
            <mxPoint x="293" y="1070" as="targetPoint"/>
          </mxGeometry>
        </mxCell>
        <mxCell id="51wt2zONH8p5RieQJXkk-40" value="" style="endArrow=classic;html=1;" parent="49rADTo3t_2bk2HtjCL9-1" edge="1" source="y0sOtreknEi_o8DZT5YF-6">
          <mxGeometry width="50" height="50" relative="1" as="geometry">
            <mxPoint x="292.5" y="1070" as="sourcePoint"/>
            <mxPoint x="293" y="1220" as="targetPoint"/>
          </mxGeometry>
        </mxCell>
        <mxCell id="51wt2zONH8p5RieQJXkk-47" style="edgeStyle=orthogonalEdgeStyle;rounded=0;orthogonalLoop=1;jettySize=auto;html=1;exitX=0.5;exitY=1;exitDx=0;exitDy=0;entryX=0.5;entryY=0;entryDx=0;entryDy=0;" parent="49rADTo3t_2bk2HtjCL9-1" source="51wt2zONH8p5RieQJXkk-41" target="51wt2zONH8p5RieQJXkk-42" edge="1">
          <mxGeometry relative="1" as="geometry"/>
        </mxCell>
        <mxCell id="owURGbW76CcWmlwA9Vru-3" style="edgeStyle=orthogonalEdgeStyle;rounded=0;orthogonalLoop=1;jettySize=auto;html=1;exitX=1;exitY=0.5;exitDx=0;exitDy=0;" parent="49rADTo3t_2bk2HtjCL9-1" source="51wt2zONH8p5RieQJXkk-41" edge="1">
          <mxGeometry relative="1" as="geometry">
            <mxPoint x="390" y="1430" as="targetPoint"/>
          </mxGeometry>
        </mxCell>
        <mxCell id="51wt2zONH8p5RieQJXkk-41" value="k=n-2,n-3...0" style="shape=hexagon;perimeter=hexagonPerimeter2;whiteSpace=wrap;html=1;" parent="49rADTo3t_2bk2HtjCL9-1" vertex="1">
          <mxGeometry x="233" y="1220" width="120" height="40" as="geometry"/>
        </mxCell>
        <mxCell id="51wt2zONH8p5RieQJXkk-44" style="edgeStyle=orthogonalEdgeStyle;rounded=0;orthogonalLoop=1;jettySize=auto;html=1;exitX=0.5;exitY=1;exitDx=0;exitDy=0;entryX=0.5;entryY=0;entryDx=0;entryDy=0;" parent="49rADTo3t_2bk2HtjCL9-1" source="51wt2zONH8p5RieQJXkk-42" target="51wt2zONH8p5RieQJXkk-43" edge="1">
          <mxGeometry relative="1" as="geometry"/>
        </mxCell>
        <mxCell id="51wt2zONH8p5RieQJXkk-46" style="edgeStyle=orthogonalEdgeStyle;rounded=0;orthogonalLoop=1;jettySize=auto;html=1;exitX=0;exitY=0.5;exitDx=0;exitDy=0;entryX=0;entryY=0.5;entryDx=0;entryDy=0;" parent="49rADTo3t_2bk2HtjCL9-1" source="51wt2zONH8p5RieQJXkk-42" target="51wt2zONH8p5RieQJXkk-41" edge="1">
          <mxGeometry relative="1" as="geometry"/>
        </mxCell>
        <mxCell id="51wt2zONH8p5RieQJXkk-42" value="j = n-1,n-2...j&amp;gt;k;" style="shape=hexagon;perimeter=hexagonPerimeter2;whiteSpace=wrap;html=1;" parent="49rADTo3t_2bk2HtjCL9-1" vertex="1">
          <mxGeometry x="233" y="1280" width="120" height="40" as="geometry"/>
        </mxCell>
        <mxCell id="51wt2zONH8p5RieQJXkk-45" style="edgeStyle=orthogonalEdgeStyle;rounded=0;orthogonalLoop=1;jettySize=auto;html=1;exitX=1;exitY=0.5;exitDx=0;exitDy=0;entryX=1;entryY=0.5;entryDx=0;entryDy=0;" parent="49rADTo3t_2bk2HtjCL9-1" source="51wt2zONH8p5RieQJXkk-43" target="51wt2zONH8p5RieQJXkk-42" edge="1">
          <mxGeometry relative="1" as="geometry"/>
        </mxCell>
        <mxCell id="51wt2zONH8p5RieQJXkk-43" value="cc[k]+=rr[k,j]*cc[j]" style="rounded=0;whiteSpace=wrap;html=1;" parent="49rADTo3t_2bk2HtjCL9-1" vertex="1">
          <mxGeometry x="240" y="1350" width="113" height="40" as="geometry"/>
        </mxCell>
        <mxCell id="y0sOtreknEi_o8DZT5YF-5" style="edgeStyle=orthogonalEdgeStyle;rounded=0;orthogonalLoop=1;jettySize=auto;html=1;exitX=0.5;exitY=1;exitDx=0;exitDy=0;" edge="1" parent="49rADTo3t_2bk2HtjCL9-1" source="owURGbW76CcWmlwA9Vru-2" target="y0sOtreknEi_o8DZT5YF-4">
          <mxGeometry relative="1" as="geometry"/>
        </mxCell>
        <mxCell id="owURGbW76CcWmlwA9Vru-2" value="cc" style="shape=parallelogram;perimeter=parallelogramPerimeter;whiteSpace=wrap;html=1;" parent="49rADTo3t_2bk2HtjCL9-1" vertex="1">
          <mxGeometry x="330" y="1430" width="120" height="60" as="geometry"/>
        </mxCell>
        <mxCell id="owURGbW76CcWmlwA9Vru-4" style="edgeStyle=orthogonalEdgeStyle;rounded=0;orthogonalLoop=1;jettySize=auto;html=1;exitX=0.5;exitY=1;exitDx=0;exitDy=0;" parent="49rADTo3t_2bk2HtjCL9-1" source="owURGbW76CcWmlwA9Vru-2" edge="1">
          <mxGeometry relative="1" as="geometry">
            <mxPoint x="390" y="1490" as="targetPoint"/>
          </mxGeometry>
        </mxCell>
        <mxCell id="y0sOtreknEi_o8DZT5YF-2" value="" style="endArrow=classic;html=1;" edge="1" parent="49rADTo3t_2bk2HtjCL9-1">
          <mxGeometry width="50" height="50" relative="1" as="geometry">
            <mxPoint x="280" y="745" as="sourcePoint"/>
            <mxPoint x="230" y="744.5" as="targetPoint"/>
          </mxGeometry>
        </mxCell>
        <mxCell id="y0sOtreknEi_o8DZT5YF-4" value="END" style="ellipse;whiteSpace=wrap;html=1;" vertex="1" parent="49rADTo3t_2bk2HtjCL9-1">
          <mxGeometry x="270" y="1520" width="120" height="50" as="geometry"/>
        </mxCell>
        <mxCell id="y0sOtreknEi_o8DZT5YF-7" value="2" style="ellipse;whiteSpace=wrap;html=1;aspect=fixed;" vertex="1" parent="49rADTo3t_2bk2HtjCL9-1">
          <mxGeometry x="273" y="1169" width="40" height="40" as="geometry"/>
        </mxCell>
        <mxCell id="y0sOtreknEi_o8DZT5YF-6" value="2" style="ellipse;whiteSpace=wrap;html=1;aspect=fixed;" vertex="1" parent="49rADTo3t_2bk2HtjCL9-1">
          <mxGeometry x="273" y="1129" width="40" height="40" as="geometry"/>
        </mxCell>
        <mxCell id="y0sOtreknEi_o8DZT5YF-8" value="" style="endArrow=classic;html=1;" edge="1" parent="49rADTo3t_2bk2HtjCL9-1" target="y0sOtreknEi_o8DZT5YF-6">
          <mxGeometry width="50" height="50" relative="1" as="geometry">
            <mxPoint x="292.5" y="1070" as="sourcePoint"/>
            <mxPoint x="293" y="1220" as="targetPoint"/>
          </mxGeometry>
        </mxCell>
      </root>
    </mxGraphModel>
  </diagram>
</mxfile>
